<svg preserveAspectRatio="none" width="100%" height="100%" overflow="visible" style="display: block;" viewBox="0 0 32 32" fill="none" xmlns="http://www.w3.org/2000/svg">
<g id="logo-facebook">
<path id="Vector" d="M16.0352 32H15.9648C7.1619 32 0 24.8381 0 16.0352V15.9648C0 7.16192 7.1619 0 15.9648 0H16.0352C24.8381 0 32 7.16192 32 15.9648V16.0352C32 24.8381 24.8381 32 16.0352 32ZM15.9648 1.08317C7.75873 1.08317 1.08317 7.75874 1.08317 15.9648V16.0352C1.08317 24.2413 7.75873 30.9168 15.9648 30.9168H16.0352C24.2413 30.9168 30.9168 24.2413 30.9168 16.0352V15.9648C30.9168 7.75874 24.2413 1.08317 16.0352 1.08317H15.9648Z" fill="var(--fill-0, white)"/>
<path id="Vector_2" d="M18.1523 12.4145V15.7821H22.3182L21.6585 20.3184H18.1523V30.7699C17.4493 30.8673 16.7301 30.9183 16.0001 30.9183C15.1574 30.9183 14.3298 30.8511 13.5239 30.7211V20.3184H9.68196V15.7821H13.5239V11.6617C13.5239 9.10544 15.596 7.03226 18.1534 7.03226V7.03443C18.161 7.03443 18.1675 7.03226 18.1751 7.03226H22.3193V10.9555H19.6113C18.8066 10.9555 18.1534 11.6086 18.1534 12.4134L18.1523 12.4145Z" fill="var(--fill-0, white)"/>
</g>
</svg>
