<svg preserveAspectRatio="none" width="100%" height="100%" overflow="visible" style="display: block;" viewBox="0 0 32 32" fill="none" xmlns="http://www.w3.org/2000/svg">
<g id="logo-insta">
<path id="Vector" d="M16.0352 32H15.9648C7.1619 32 0 24.8381 0 16.0352V15.9648C0 7.16189 7.1619 0 15.9648 0H16.0352C24.8381 0 32 7.16189 32 15.9648V16.0352C32 24.8381 24.8381 32 16.0352 32ZM15.9648 1.08317C7.75873 1.08317 1.08317 7.75872 1.08317 15.9648V16.0352C1.08317 24.2413 7.75873 30.9168 15.9648 30.9168H16.0352C24.2413 30.9168 30.9168 24.2413 30.9168 16.0352V15.9648C30.9168 7.75872 24.2413 1.08317 16.0352 1.08317H15.9648Z" fill="var(--fill-0, white)"/>
<g id="Group">
<path id="Vector_2" d="M20.784 6.84167H11.2175C8.57457 6.84167 6.42448 8.99176 6.42448 11.6347V20.3867C6.42448 23.0296 8.57457 25.1797 11.2175 25.1797H20.784C23.427 25.1797 25.577 23.0296 25.577 20.3867V11.6347C25.577 8.99176 23.427 6.84167 20.784 6.84167ZM8.11531 11.6347C8.11531 9.92437 9.50717 8.53248 11.2175 8.53248H20.784C22.4943 8.53248 23.8862 9.92437 23.8862 11.6347V20.3867C23.8862 22.097 22.4943 23.4889 20.784 23.4889H11.2175C9.50717 23.4889 8.11531 22.097 8.11531 20.3867V11.6347Z" fill="var(--fill-0, white)"/>
<path id="Vector_3" d="M16.0007 20.4597C18.4584 20.4597 20.459 18.4602 20.459 16.0014C20.459 13.5426 18.4595 11.5431 16.0007 11.5431C13.5419 11.5431 11.5424 13.5426 11.5424 16.0014C11.5424 18.4602 13.5419 20.4597 16.0007 20.4597ZM16.0007 13.235C17.5269 13.235 18.7682 14.4763 18.7682 16.0025C18.7682 17.5287 17.5269 18.77 16.0007 18.77C14.4746 18.77 13.2332 17.5287 13.2332 16.0025C13.2332 14.4763 14.4746 13.235 16.0007 13.235Z" fill="var(--fill-0, white)"/>
<path id="Vector_4" d="M20.8717 12.2608C21.5335 12.2608 22.0729 11.7223 22.0729 11.0592C22.0729 10.3961 21.5346 9.85761 20.8717 9.85761C20.2088 9.85761 19.6704 10.3961 19.6704 11.0592C19.6704 11.7223 20.2088 12.2608 20.8717 12.2608Z" fill="var(--fill-0, white)"/>
</g>
</g>
</svg>
