<svg preserveAspectRatio="none" width="100%" height="100%" overflow="visible" style="display: block;" viewBox="0 0 32 32" fill="none" xmlns="http://www.w3.org/2000/svg">
<g id="logo-linkedin">
<path id="Vector" d="M16.0352 32H15.9648C7.16191 32 0 24.8381 0 16.0352V15.9648C0 7.16191 7.16191 0 15.9648 0H16.0352C24.8381 0 32 7.16191 32 15.9648V16.0352C32 24.8381 24.8381 32 16.0352 32ZM15.9648 1.08317C7.75874 1.08317 1.08317 7.75874 1.08317 15.9648V16.0352C1.08317 24.2413 7.75874 30.9168 15.9648 30.9168H16.0352C24.2413 30.9168 30.9168 24.2413 30.9168 16.0352V15.9648C30.9168 7.75874 24.2413 1.08317 16.0352 1.08317H15.9648Z" fill="var(--fill-0, white)"/>
<g id="Group">
<path id="Vector_2" d="M7.91502 10.8196C7.50775 10.4416 7.30521 9.9737 7.30521 9.41695C7.30521 8.86021 7.50883 8.37168 7.91502 7.99257C8.32229 7.61455 8.84655 7.42499 9.48886 7.42499C10.1312 7.42499 10.6349 7.61455 11.041 7.99257C11.4483 8.3706 11.6509 8.84612 11.6509 9.41695C11.6509 9.98778 11.4472 10.4416 11.041 10.8196C10.6338 11.1977 10.1171 11.3872 9.48886 11.3872C8.86063 11.3872 8.32229 11.1977 7.91502 10.8196ZM11.3086 12.9881V24.578H7.6464V12.9881H11.3086Z" fill="var(--fill-0, white)"/>
<path id="Vector_3" d="M23.4989 14.1362C24.2972 15.0028 24.6958 16.1921 24.6958 17.7064V24.3765H21.2178V18.1765C21.2178 17.4128 21.0196 16.8193 20.6242 16.3968C20.2289 15.9744 19.6959 15.7621 19.0287 15.7621C18.3615 15.7621 17.8285 15.9733 17.4332 16.3968C17.0378 16.8193 16.8396 17.4128 16.8396 18.1765V24.3765H13.341V12.9589H16.8396V14.4731C17.1938 13.9684 17.6715 13.5698 18.2716 13.2762C18.8717 12.9827 19.5465 12.8364 20.2971 12.8364C21.6337 12.8364 22.7017 13.2697 23.4989 14.1362Z" fill="var(--fill-0, white)"/>
</g>
</g>
</svg>
