<svg preserveAspectRatio="none" width="100%" height="100%" overflow="visible" style="display: block;" viewBox="0 0 20 17" fill="none" xmlns="http://www.w3.org/2000/svg">
<path id="Vector (Stroke)" fill-rule="evenodd" clip-rule="evenodd" d="M10.7197 0.21967C11.0126 -0.0732233 11.4874 -0.0732233 11.7803 0.21967L19.2803 7.71967C19.421 7.86032 19.5 8.05109 19.5 8.25C19.5 8.44891 19.421 8.63968 19.2803 8.78033L11.7803 16.2803C11.4874 16.5732 11.0126 16.5732 10.7197 16.2803C10.4268 15.9874 10.4268 15.5126 10.7197 15.2197L16.9393 9H0.75C0.335786 9 0 8.66421 0 8.25C0 7.83579 0.335786 7.5 0.75 7.5H16.9393L10.7197 1.28033C10.4268 0.987437 10.4268 0.512563 10.7197 0.21967Z" fill="var(--fill-0, #0F172A)"/>
</svg>
