<svg preserveAspectRatio="none" width="100%" height="100%" overflow="visible" style="display: block;" viewBox="0 0 17 14" fill="none" xmlns="http://www.w3.org/2000/svg">
<path id="Vector (Stroke)" fill-rule="evenodd" clip-rule="evenodd" d="M8.93306 0.183058C9.17714 -0.0610194 9.57286 -0.0610194 9.81694 0.183058L16.0669 6.43306C16.1842 6.55027 16.25 6.70924 16.25 6.875C16.25 7.04076 16.1842 7.19973 16.0669 7.31694L9.81694 13.5669C9.57286 13.811 9.17714 13.811 8.93306 13.5669C8.68898 13.3229 8.68898 12.9271 8.93306 12.6831L14.1161 7.5H0.625C0.279822 7.5 0 7.22018 0 6.875C0 6.52982 0.279822 6.25 0.625 6.25H14.1161L8.93306 1.06694C8.68898 0.822864 8.68898 0.427136 8.93306 0.183058Z" fill="var(--fill-0, black)"/>
</svg>
