<svg preserveAspectRatio="none" width="100%" height="100%" overflow="visible" style="display: block;" viewBox="0 0 72 72" fill="none" xmlns="http://www.w3.org/2000/svg">
<g id="Bullet">
<rect width="72" height="72" rx="36" fill="var(--fill-0, black)"/>
<path id="Vector" d="M36 20.75C40.5462 20.75 44.6269 22.7399 47.4209 25.8955L45.2031 27.5596C44.7791 27.8776 44.2635 28.0498 43.7334 28.0498H38.3604C37.1202 28.0498 35.9863 28.7511 35.4316 29.8604C34.7474 31.2291 35.1027 32.8894 36.2871 33.8584L39.4863 36.4766C41.8078 38.3759 43.0098 41.3216 42.6787 44.3027L42.6465 44.5898C42.5266 45.6686 42.2615 46.7266 41.8584 47.7344L40.9033 50.1211L41.3281 50.291C39.6693 50.9097 37.8745 51.25 36 51.25C35.453 51.25 34.9129 51.2202 34.3809 51.1641L35.1484 48.0977C35.6887 45.936 34.6551 43.6889 32.6621 42.6924C30.8605 41.7914 29.8574 39.821 30.1885 37.834L30.4033 36.542C30.8486 33.8687 28.5308 31.5515 25.8574 31.9971L21.0889 32.791C22.5627 25.9096 28.6785 20.75 36 20.75ZM26.1045 33.4766C27.7626 33.2003 29.2002 34.6377 28.9238 36.2959L28.708 37.5869C28.2686 40.2235 29.6005 42.8386 31.9912 44.0342C33.3555 44.7163 34.0633 46.2546 33.6934 47.7344L32.8926 50.9326C25.9604 49.4975 20.75 43.3575 20.75 36C20.75 35.3376 20.7911 34.685 20.873 34.0449L20.9229 34.3398L26.1045 33.4766ZM48.3594 27.0674C50.1771 29.5781 51.25 32.6634 51.25 36C51.25 42.0252 47.7551 47.2328 42.6826 49.71L43.251 48.292C43.6476 47.3004 43.9255 46.2658 44.0791 45.21L44.1377 44.7559L44.1689 44.4688C44.5563 40.9822 43.1515 37.5368 40.4365 35.3154L37.2363 32.6973C36.5946 32.1721 36.4026 31.2719 36.7734 30.5303C37.074 29.9295 37.6885 29.5498 38.3604 29.5498H43.7334C44.588 29.5498 45.4198 29.2726 46.1035 28.7598L48.3594 27.0674Z" stroke="var(--stroke-0, white)" stroke-width="1.5"/>
</g>
</svg>
