<svg preserveAspectRatio="none" width="100%" height="100%" overflow="visible" style="display: block;" viewBox="0 0 44 45" fill="none" xmlns="http://www.w3.org/2000/svg">
<g id="IconLinkedIn" clip-path="url(#clip0_2160_3632)">
<path id="Vector" d="M22.0484 44.013H21.9516C9.84763 44.013 0 34.1624 0 22.0549V21.9581C0 9.85053 9.84763 0 21.9516 0H22.0484C34.1524 0 44 9.85053 44 21.9581V22.0549C44 34.1624 34.1524 44.013 22.0484 44.013ZM21.9516 1.48979C10.6683 1.48979 1.48935 10.6714 1.48935 21.9581V22.0549C1.48935 33.3416 10.6683 42.5232 21.9516 42.5232H22.0484C33.3317 42.5232 42.5106 33.3416 42.5106 22.0549V21.9581C42.5106 10.6714 33.3317 1.48979 22.0484 1.48979H21.9516Z" fill="var(--fill-0, black)"/>
<g id="Group">
<path id="Vector_2" d="M13.6631 15.9594C13.2202 15.5482 13 15.0393 13 14.4337C13 13.8282 13.2214 13.2968 13.6631 12.8845C14.1059 12.4733 14.676 12.2671 15.3744 12.2671C16.0728 12.2671 16.6205 12.4733 17.0622 12.8845C17.505 13.2956 17.7253 13.8128 17.7253 14.4337C17.7253 15.0546 17.5039 15.5482 17.0622 15.9594C16.6193 16.3705 16.0575 16.5767 15.3744 16.5767C14.6913 16.5767 14.1059 16.3705 13.6631 15.9594ZM17.3531 18.318V30.9238H13.371V18.318H17.3531Z" fill="var(--fill-0, black)"/>
<path id="Vector_3" d="M30.6085 19.5633C31.4766 20.5058 31.91 21.7994 31.91 23.4464V30.7013H28.1281V23.9577C28.1281 23.1271 27.9126 22.4815 27.4827 22.0221C27.0528 21.5626 26.4733 21.3317 25.7478 21.3317C25.0223 21.3317 24.4428 21.5614 24.0129 22.0221C23.583 22.4815 23.3675 23.1271 23.3675 23.9577V30.7013H19.5632V18.2827H23.3675V19.9297C23.7526 19.3807 24.2721 18.9472 24.9245 18.6279C25.577 18.3086 26.3108 18.1496 27.127 18.1496C28.5804 18.1496 29.7417 18.6208 30.6085 19.5633Z" fill="var(--fill-0, black)"/>
</g>
</g>
<defs>
<clipPath id="clip0_2160_3632">
<rect width="44" height="44.013" fill="white"/>
</clipPath>
</defs>
</svg>
