<svg preserveAspectRatio="none" width="100%" height="100%" overflow="visible" style="display: block;" viewBox="0 0 100 100" fill="none" xmlns="http://www.w3.org/2000/svg">
<g id="ico-100-svp02 1" clip-path="url(#clip0_2853_34045)">
<g id="base">
</g>
<g id="icon">
<path id="path" d="M63.455 84.001C63.0864 84.0009 62.7222 83.9204 62.388 83.7649C62.0538 83.6094 61.7575 83.3829 61.52 83.101L46.22 65.048C45.7262 64.46 45.3938 63.7536 45.2557 62.9983C45.1175 62.243 45.1783 61.4647 45.432 60.74L53.327 38.392C53.4503 38.0394 53.65 37.7184 53.9117 37.4518C54.1734 37.1853 54.4907 36.9798 54.841 36.85C55.1895 36.719 55.5627 36.6672 55.9336 36.6981C56.3046 36.7291 56.6641 36.8421 56.986 37.029C59.6372 38.5758 62.0407 40.5125 64.116 42.774C64.2919 42.9682 64.3846 43.2236 64.3742 43.4854C64.3637 43.7473 64.2509 43.9945 64.06 44.174C63.9648 44.2631 63.8529 44.3323 63.7307 44.3778C63.6085 44.4233 63.4785 44.444 63.3483 44.4388C63.218 44.4336 63.0901 44.4025 62.972 44.3475C62.8538 44.2924 62.7478 44.2144 62.66 44.118C60.7196 42.0029 58.4721 40.1917 55.993 38.745C55.9223 38.7046 55.8436 38.6806 55.7625 38.6745C55.6813 38.6685 55.5999 38.6806 55.524 38.71C55.446 38.7385 55.3753 38.784 55.3171 38.8431C55.2588 38.9023 55.2144 38.9736 55.187 39.052L47.293 61.401C47.1544 61.7972 47.1213 62.2226 47.1969 62.6355C47.2724 63.0484 47.4541 63.4345 47.724 63.756L63.024 81.806C63.0792 81.8678 63.1467 81.9174 63.2221 81.9519C63.2974 81.9863 63.3791 82.0047 63.462 82.006C63.542 82.0057 63.6209 81.9876 63.693 81.953C63.7652 81.9184 63.8287 81.8682 63.879 81.806C68.0271 76.6679 70.291 70.2645 70.294 63.661C70.294 63.399 70.288 63.137 70.282 62.875L71.269 62.813L72.258 62.829C72.265 63.107 72.271 63.384 72.271 63.661C72.2676 70.7211 69.8475 77.5673 65.413 83.061C65.1806 83.3492 64.8873 83.5824 64.5542 83.7439C64.221 83.9054 63.8562 83.9911 63.486 83.995L63.455 84.001Z" fill="var(--fill-0, #1A1A1A)"/>
<path id="path_2" d="M13.612 66.214C13.0267 66.2131 12.4603 66.0064 12.012 65.63C11.7275 65.3923 11.4987 65.095 11.342 64.759C11.1852 64.4231 11.1043 64.0567 11.105 63.686C11.0928 57.9232 12.7006 52.273 15.745 47.38C15.8134 47.2695 15.903 47.1737 16.0087 47.098C16.1143 47.0223 16.2339 46.9684 16.3606 46.9392C16.4872 46.91 16.6184 46.9061 16.7465 46.9279C16.8746 46.9497 16.9971 46.9966 17.107 47.066C17.3287 47.2075 17.4858 47.4306 17.5442 47.687C17.6026 47.9434 17.5576 48.2125 17.419 48.436C14.5756 53.006 13.0729 58.2827 13.082 63.665C13.0795 63.7474 13.0957 63.8294 13.1293 63.9047C13.1629 63.98 13.213 64.0468 13.276 64.1C13.3355 64.1504 13.4056 64.1869 13.481 64.2068C13.5564 64.2267 13.6353 64.2295 13.712 64.215L36.934 59.909C37.346 59.8313 37.7304 59.647 38.049 59.3746C38.3676 59.1021 38.6093 58.7509 38.75 58.356L46.638 36.003C46.667 35.925 46.6782 35.8415 46.6708 35.7586C46.6633 35.6758 46.6374 35.5956 46.595 35.524C46.5553 35.4539 46.5004 35.3936 46.4343 35.3476C46.3681 35.3015 46.2925 35.2709 46.213 35.258C42.3295 34.6355 38.3594 34.8193 34.55 35.798C34.4224 35.8342 34.2888 35.8445 34.1572 35.8282C34.0256 35.812 33.8985 35.7696 33.7835 35.7035C33.6685 35.6374 33.5679 35.549 33.4877 35.4434C33.4074 35.3378 33.349 35.2172 33.3161 35.0888C33.2831 34.9603 33.2762 34.8265 33.2957 34.6954C33.3152 34.5642 33.3608 34.4382 33.4298 34.3249C33.4987 34.2116 33.5896 34.1133 33.6972 34.0357C33.8047 33.958 33.9267 33.9027 34.056 33.873C38.1297 32.8248 42.3759 32.6284 46.529 33.296C46.8962 33.3567 47.2454 33.498 47.5515 33.7098C47.8576 33.9217 48.1128 34.1987 48.299 34.521C48.4885 34.844 48.6047 35.2048 48.6393 35.5777C48.6738 35.9507 48.6259 36.3266 48.499 36.679L40.612 59.021C40.3562 59.7442 39.915 60.3877 39.3326 60.8869C38.7502 61.3862 38.0468 61.7238 37.293 61.866L14.075 66.171C13.9236 66.1994 13.77 66.2138 13.616 66.214" fill="var(--fill-0, #1A1A1A)"/>
<path id="path_3" d="M27.666 48.357C26.9852 48.3453 26.3105 48.2276 25.666 48.008C22.55 47.008 19.117 42.071 16.144 37.521C15.818 37.021 15.4993 36.531 15.188 36.051C14.1299 34.2199 12.8904 32.4999 11.488 30.917C8.12821 28.3933 4.46867 26.2957 0.593 24.672C0.353154 24.5645 0.16528 24.3669 0.0700233 24.1219C-0.0252331 23.8769 -0.0202121 23.6043 0.0839999 23.363C0.135532 23.2439 0.210085 23.1361 0.303381 23.0458C0.396676 22.9555 0.506878 22.8846 0.627662 22.837C0.748446 22.7894 0.877435 22.7662 1.00723 22.7686C1.13702 22.771 1.26506 22.799 1.384 22.851C9.032 26.22 10.784 27.851 12.698 29.351C13.713 30.145 15.098 32.273 16.842 34.968C17.151 35.444 17.468 35.934 17.794 36.431C19.664 39.293 23.555 45.246 26.267 46.117C27.128 46.393 28.267 46.584 28.848 45.906C29.648 44.971 29.442 42.581 28.388 40.464C26.9882 37.4445 25.8182 34.3236 24.888 31.128C24.81 30.847 24.738 30.589 24.666 30.338C24.2499 29.0067 23.9928 27.6308 23.9 26.239C23.8448 25.6618 24.021 25.0863 24.39 24.639C25.652 23.369 30.053 22.808 35.001 27.139C35.1032 27.2217 35.1879 27.3239 35.2502 27.4397C35.3125 27.5554 35.3512 27.6824 35.364 27.8132C35.3768 27.944 35.3635 28.0761 35.3249 28.2017C35.2862 28.3273 35.223 28.444 35.1388 28.545C35.0547 28.646 34.9513 28.7292 34.8347 28.7899C34.7181 28.8506 34.5906 28.8875 34.4596 28.8985C34.3286 28.9095 34.1967 28.8943 34.0717 28.8539C33.9466 28.8134 33.8308 28.7486 33.731 28.663C29.794 25.199 26.631 25.523 25.885 25.971C25.8784 26.0512 25.876 26.1316 25.878 26.212C25.973 27.4285 26.2034 28.6306 26.565 29.796C26.636 30.045 26.711 30.311 26.786 30.584C27.6857 33.6598 28.8121 36.6647 30.156 39.574C31.383 42.04 31.92 45.355 30.349 47.199C30.0179 47.5821 29.6046 47.8854 29.1398 48.0863C28.675 48.2871 28.1709 48.3804 27.665 48.359" fill="var(--fill-0, #1A1A1A)"/>
<path id="path_4" d="M45.716 35.177C45.4545 35.1759 45.2039 35.0717 45.0189 34.8868C44.8339 34.702 44.7293 34.4515 44.728 34.19C44.633 20.3 34.466 10.238 30.912 7.809C26.566 4.844 20.258 3.481 14.04 4.16C12.2757 4.30193 10.5025 4.29122 8.74 4.128C8.48219 4.09799 8.24634 3.96833 8.08287 3.76673C7.91939 3.56513 7.84125 3.30759 7.86515 3.04914C7.88905 2.79069 8.01309 2.55184 8.21076 2.38364C8.40844 2.21544 8.66406 2.13122 8.923 2.149C10.5617 2.30015 12.2104 2.31085 13.851 2.181C20.497 1.454 27.298 2.942 32.023 6.164C36.073 8.931 46.604 19.357 46.705 34.175C46.7074 34.4377 46.6054 34.6905 46.4215 34.878C46.2375 35.0656 45.9867 35.1724 45.724 35.175L45.716 35.177Z" fill="var(--fill-0, #1A1A1A)"/>
<path id="path_5" d="M67.507 57.599C66.7349 57.6447 65.9619 57.5257 65.2394 57.2498C64.5168 56.974 63.8612 56.5476 63.316 55.999C62.879 55.4865 62.6389 54.835 62.6389 54.1615C62.6389 53.488 62.879 52.8365 63.316 52.324C64.9177 50.2631 66.625 48.2865 68.431 46.402C69.482 45.264 70.475 44.188 71.356 43.165C71.724 42.742 72.07 42.329 72.382 41.936C73.196 40.909 72.982 38.351 71.903 36.353C71.303 35.237 70.675 34.765 70.328 34.793C70.057 34.819 69.768 34.832 69.464 34.845C68.7432 34.7874 68.0183 34.8809 67.3357 35.1195C66.6531 35.3582 66.0279 35.7368 65.5 36.231C65.4099 36.325 65.302 36.4002 65.1826 36.4522C65.0632 36.5042 64.9346 36.532 64.8044 36.534C64.6742 36.5359 64.5448 36.512 64.4239 36.4636C64.303 36.4152 64.1929 36.3433 64.1 36.252C63.9124 36.0676 63.8051 35.8168 63.8011 35.5538C63.7972 35.2908 63.897 35.0369 64.079 34.847C64.7777 34.1683 65.6092 33.6413 66.5213 33.2992C67.4333 32.9571 68.4063 32.8072 69.379 32.859C69.649 32.847 69.906 32.836 70.146 32.814C71.42 32.687 72.693 33.64 73.646 35.408C74.908 37.756 75.436 41.276 73.93 43.176C73.599 43.592 73.23 44.027 72.851 44.469C71.951 45.516 70.951 46.604 69.883 47.756C68.1265 49.5878 66.4653 51.5087 64.906 53.511C64.453 54.124 64.627 54.48 64.829 54.722C65.589 55.632 68.1 56.154 70.84 54.77C72.14 54.105 73.849 53.117 75.772 51.914C78.945 49.941 82.491 47.553 85.08 45.809C86.013 45.181 86.838 44.625 87.504 44.183C87.6094 44.1136 87.7272 44.065 87.851 44.04C91.5705 43.4481 95.355 43.3858 99.092 43.855C99.3502 43.882 99.5876 44.0089 99.7534 44.2086C99.9192 44.4083 100 44.6649 99.9795 44.9236C99.9586 45.1824 99.8373 45.4227 99.6416 45.5932C99.4458 45.7637 99.1911 45.8508 98.932 45.836C95.443 45.3978 91.9106 45.4365 88.432 45.951C87.8 46.371 87.032 46.885 86.183 47.46C83.583 49.213 80.018 51.614 76.816 53.604C74.848 54.835 73.089 55.853 71.733 56.545C70.4268 57.2217 68.98 57.5824 67.509 57.598" fill="var(--fill-0, #1A1A1A)"/>
<path id="path_6" d="M56.639 32.001C56.5086 32.0011 56.3794 31.9752 56.259 31.925C56.0173 31.8217 55.8259 31.6274 55.7263 31.3841C55.6268 31.1408 55.627 30.8681 55.727 30.625C56.6033 28.3108 57.935 26.196 59.6433 24.4057C61.3515 22.6154 63.4015 21.1859 65.672 20.202C66.533 19.834 67.316 19.467 68.072 19.112C72.787 16.902 76.194 15.305 86.556 19.321C92.75 21.721 94.904 22.412 97.405 23.462C97.6466 23.5655 97.8377 23.7598 97.9371 24.0031C98.0364 24.2464 98.0361 24.519 97.936 24.762C97.8865 24.8822 97.8137 24.9915 97.7219 25.0835C97.63 25.1755 97.5208 25.2484 97.4006 25.298C97.2804 25.3477 97.1516 25.373 97.0216 25.3727C96.8916 25.3723 96.7629 25.3463 96.643 25.296C94.153 24.251 92.017 23.571 85.843 21.175C76.265 17.463 73.495 18.762 68.906 20.912C68.134 21.275 67.336 21.649 66.443 22.03C64.4101 22.9159 62.5756 24.2006 61.0479 25.8079C59.5203 27.4153 58.3305 29.3127 57.549 31.388C57.4745 31.569 57.348 31.7237 57.1855 31.8327C57.0229 31.9416 56.8317 31.9999 56.636 32" fill="var(--fill-0, #1A1A1A)"/>
<path id="path_7" d="M42.731 98C35.9211 97.9897 29.2715 95.932 23.6461 92.094C18.0207 88.256 13.6794 82.8151 11.186 76.478C11.0397 76.0989 10.9796 75.6919 11.01 75.2867C11.0404 74.8814 11.1607 74.488 11.362 74.135C11.5645 73.7773 11.8433 73.4686 12.1786 73.2308C12.5139 72.993 12.8975 72.8319 13.302 72.759L38.908 68.079C39.7376 67.9283 40.5922 67.9966 41.3874 68.2772C42.1825 68.5578 42.8907 69.041 43.442 69.679L46.398 73.118L50.666 78.081L60.331 89.314C60.5973 89.622 60.7922 89.985 60.9018 90.3771C61.0113 90.7692 61.0328 91.1807 60.9646 91.5821C60.8965 91.9835 60.7404 92.3648 60.5076 92.6988C60.2748 93.0328 59.971 93.3112 59.618 93.514C54.4767 96.4568 48.6549 98.0033 42.731 98Z" fill="var(--fill-0, #501D83)"/>
</g>
</g>
<defs>
<clipPath id="clip0_2853_34045">
<rect width="100" height="100" fill="white"/>
</clipPath>
</defs>
</svg>
