<svg preserveAspectRatio="none" width="100%" height="100%" overflow="visible" style="display: block;" viewBox="0 0 28 28" fill="none" xmlns="http://www.w3.org/2000/svg">
<g id="Group">
<path id="Vector" d="M28 9.60679C28 4.30959 23.6904 0 18.3933 0C13.0961 0 8.78648 4.30959 8.78648 9.60679C8.78648 10.8731 9.03328 12.0828 9.48068 13.1907C9.39799 13.2035 9.31662 13.2279 9.23994 13.2663L0.453469 17.6595C0.175547 17.7985 0 18.0825 0 18.3933C0 18.704 0.175547 18.988 0.453469 19.127L4.39321 21.0969V26.1427C4.39321 26.4535 4.56887 26.7376 4.8469 26.8765C6.31816 27.6115 7.96414 28 9.60679 28C11.2494 28 12.8954 27.6114 14.3666 26.8764C14.6447 26.7375 14.8203 26.4534 14.8203 26.1426V21.0969L17.5729 19.7206V25.0756C17.5729 25.5287 17.9402 25.896 18.3932 25.896C18.8462 25.896 19.2135 25.5287 19.2135 25.0756V19.1781C24.1281 18.7605 28 14.6276 28 9.60679ZM25.89 6.9125C26.1935 7.75441 26.3594 8.66157 26.3594 9.60679C26.3594 10.552 26.1935 11.4591 25.89 12.3011H22.5665C22.6729 11.4374 22.7282 10.5317 22.7282 9.60679C22.7282 8.68186 22.6729 7.77618 22.5665 6.9125H25.89ZM25.0735 5.27187H22.2917C22.1211 4.48071 21.9027 3.74566 21.6401 3.08913C21.5047 2.75078 21.3589 2.4389 21.204 2.15316C22.801 2.7574 24.1545 3.86061 25.0735 5.27187ZM18.3933 1.64062C19.1144 1.64062 20.0496 2.97773 20.6072 5.27187H16.1792C16.7368 2.97773 17.6722 1.64062 18.3933 1.64062ZM15.5824 2.15321C15.4276 2.43895 15.2817 2.75078 15.1464 3.08913C14.8838 3.74566 14.6654 4.48071 14.4948 5.27187H11.713C12.632 3.86066 13.9855 2.75745 15.5824 2.15321ZM11.9162 14.2376C11.8466 14.1404 11.7784 14.0421 11.713 13.9416H14.4948C14.6369 14.6011 14.8128 15.2207 15.0193 15.7892L11.9162 14.2376ZM10.8965 6.9125H14.22C14.1135 7.77618 14.0583 8.68186 14.0583 9.60679C14.0583 10.5317 14.1136 11.4374 14.22 12.3011H10.8965C10.593 11.4592 10.4271 10.552 10.4271 9.60679C10.4271 8.66157 10.593 7.75447 10.8965 6.9125ZM13.1797 25.6197C12.0549 26.1047 10.8297 26.3594 9.60679 26.3594C8.38387 26.3594 7.15859 26.1047 6.03384 25.6197V21.9172L9.23994 23.5202C9.35539 23.578 9.48106 23.6068 9.60679 23.6068C9.73252 23.6068 9.85819 23.5779 9.97363 23.5202L13.1797 21.9172V25.6197ZM9.60679 21.8694L2.65459 18.3933L9.60679 14.9172L16.5589 18.3933L9.60679 21.8694ZM18.5468 17.5529L17.5417 17.0504C17.0363 16.4614 16.5321 15.3935 16.1792 13.9417H20.6072C20.0885 16.0762 19.2428 17.3815 18.5468 17.5529ZM20.9128 12.3011H15.8736C15.7628 11.4804 15.6989 10.5789 15.6989 9.60679C15.6989 8.63472 15.7628 7.73325 15.8736 6.9125H20.9128C21.0236 7.73319 21.0876 8.63472 21.0876 9.60679C21.0876 10.5789 21.0236 11.4803 20.9128 12.3011ZM21.204 17.0604C21.3589 16.7746 21.5047 16.4628 21.6401 16.1244C21.9027 15.4679 22.1211 14.7329 22.2917 13.9416H25.0735C24.1545 15.3529 22.801 16.4561 21.204 17.0604Z" fill="var(--fill-0, white)"/>
</g>
</svg>
