<svg preserveAspectRatio="none" width="100%" height="100%" overflow="visible" style="display: block;" viewBox="0 0 100 100" fill="none" xmlns="http://www.w3.org/2000/svg">
<g id="ico/100/layer01">
<g id="base">
</g>
<path id="path" d="M18.657 98.649L22.74 94.407C23.6053 93.523 24.6419 92.8248 25.7864 92.3552C26.9309 91.8856 28.1591 91.6545 29.396 91.676L61.942 92.253C63.6912 92.2824 65.3862 91.6453 66.683 90.471L95.183 64.722C95.5704 64.3719 95.8029 63.8823 95.8296 63.3609C95.8562 62.8394 95.6747 62.3287 95.325 61.941C95.2623 61.8724 95.1955 61.8076 95.125 61.747C91.38 58.647 86.794 57.547 80.971 61.739C76.123 65.229 67.952 71.145 64.309 73.783C63.6688 72.5621 62.7088 71.5381 61.5317 70.8205C60.3545 70.103 59.0046 69.7188 57.626 69.709L45.826 69.498C41.9714 66.1042 36.9907 64.2681 31.8555 64.348C26.7204 64.4279 21.7992 66.418 18.052 69.93L4.225 82.679" stroke="var(--stroke-0, #1F1F1F)" stroke-width="2" stroke-linecap="round" stroke-linejoin="round"/>
<path id="path_2" d="M40.883 79.368L64.174 79.783C64.3378 79.7862 64.5006 79.757 64.6531 79.6972C64.8057 79.6374 64.9449 79.5481 65.0628 79.4344C65.1808 79.3207 65.2752 79.1849 65.3406 79.0346C65.406 78.8844 65.4411 78.7228 65.444 78.559C65.444 78.535 65.444 78.51 65.444 78.486C65.058 70.595 59.404 69.743 57.624 69.712L45.824 69.5C41.9692 66.1047 36.9874 64.2679 31.8511 64.3481C26.7149 64.4284 21.7929 66.4199 18.046 69.934L4.225 82.682" stroke="var(--stroke-0, #1F1F1F)" stroke-width="2" stroke-linecap="round" stroke-linejoin="round"/>
<g id="path_3">
<path d="M70.788 43.482L81.204 49.282C81.3318 49.3489 81.4389 49.4495 81.5136 49.5729C81.5883 49.6962 81.6278 49.8377 81.6278 49.982C81.6278 50.1263 81.5883 50.2677 81.5136 50.3911C81.4389 50.5145 81.3318 50.6151 81.204 50.682L55.726 61.784C55.0661 62.0353 54.3369 62.0353 53.677 61.784L28.199 50.679C28.0712 50.6121 27.9641 50.5115 27.8894 50.3881C27.8147 50.2648 27.7752 50.1233 27.7752 49.979C27.7752 49.8347 27.8147 49.6932 27.8894 49.5699C27.9641 49.4465 28.0712 49.3459 28.199 49.279L41.499 43.479" fill="var(--fill-0, #501D83)"/>
<path d="M70.788 43.482L81.204 49.282C81.3318 49.3489 81.4389 49.4495 81.5136 49.5729C81.5883 49.6962 81.6278 49.8377 81.6278 49.982C81.6278 50.1263 81.5883 50.2677 81.5136 50.3911C81.4389 50.5145 81.3318 50.6151 81.204 50.682L55.726 61.784C55.0661 62.0353 54.3369 62.0353 53.677 61.784L28.199 50.679C28.0712 50.6121 27.9641 50.5115 27.8894 50.3881C27.8147 50.2648 27.7752 50.1233 27.7752 49.979C27.7752 49.8347 27.8147 49.6932 27.8894 49.5699C27.9641 49.4465 28.0712 49.3459 28.199 49.279L41.499 43.479" stroke="var(--stroke-0, #501D83)" stroke-width="2" stroke-linecap="round" stroke-linejoin="round"/>
</g>
<path id="path_4" d="M86.388 36.998L55.928 50.274C55.1395 50.5753 54.2675 50.5753 53.479 50.274L23.02 36.998C22.867 36.918 22.7389 36.7977 22.6494 36.6501C22.56 36.5024 22.5127 36.3331 22.5127 36.1605C22.5127 35.9879 22.56 35.8186 22.6494 35.6709C22.7389 35.5233 22.867 35.403 23.02 35.323L53.479 22.049C54.2675 21.7477 55.1395 21.7477 55.928 22.049L86.388 35.322C86.5412 35.4019 86.6696 35.5222 86.7592 35.67C86.8488 35.8177 86.8962 35.9872 86.8962 36.16C86.8962 36.3328 86.8488 36.5023 86.7592 36.65C86.6696 36.7978 86.5412 36.9181 86.388 36.998Z" fill="var(--fill-0, white)" stroke="var(--stroke-0, #1F1F1F)" stroke-width="2" stroke-linecap="round" stroke-linejoin="round"/>
<path id="path_5" d="M89.159 22.228L66.371 12.986C66.1689 12.9035 65.9872 12.7779 65.8386 12.6179C65.69 12.4579 65.5782 12.2674 65.5108 12.0597C65.4435 11.852 65.4223 11.6322 65.4488 11.4154C65.4753 11.1987 65.5487 10.9904 65.664 10.805L67.031 7.76C67.1464 7.54898 67.2176 7.31662 67.24 7.07714C67.2625 6.83767 67.2358 6.59613 67.1617 6.36732C67.0875 6.13851 66.9675 5.92724 66.8088 5.74647C66.6501 5.56569 66.4563 5.41921 66.239 5.316L57.019 1.3C55.9806 0.903356 54.8324 0.903356 53.794 1.3L13.669 18.784C13.4674 18.8892 13.2984 19.0476 13.1805 19.2421C13.0626 19.4365 13.0003 19.6596 13.0003 19.887C13.0003 20.1144 13.0626 20.3375 13.1805 20.5319C13.2984 20.7264 13.4674 20.8848 13.669 20.99L53.794 38.479C54.8324 38.8756 55.9806 38.8756 57.019 38.479L89.159 24.47C89.3577 24.3579 89.523 24.1951 89.6381 23.9981C89.7531 23.8011 89.8138 23.5771 89.8138 23.349C89.8138 23.1209 89.7531 22.8969 89.6381 22.6999C89.523 22.5029 89.3577 22.3401 89.159 22.228Z" fill="var(--fill-0, white)" stroke="var(--stroke-0, #1F1F1F)" stroke-width="2"/>
</g>
</svg>
