<svg preserveAspectRatio="none" width="100%" height="100%" overflow="visible" style="display: block;" viewBox="0 0 28 26" fill="none" xmlns="http://www.w3.org/2000/svg">
<g id="Group">
<path id="Vector" d="M10.4789 3.51317H4.32841C3.87538 3.51317 3.5081 3.88045 3.5081 4.33348C3.5081 4.78651 3.87538 5.15379 4.32841 5.15379H10.479C10.932 5.15379 11.2993 4.78651 11.2993 4.33348C11.2993 3.88045 10.932 3.51317 10.4789 3.51317Z" fill="var(--fill-0, white)"/>
<path id="Vector_2" d="M16.7141 4.33348C16.7141 4.78651 17.0814 5.15379 17.5344 5.15379H23.685C24.138 5.15379 24.5053 4.78651 24.5053 4.33348C24.5053 3.88045 24.138 3.51317 23.685 3.51317H17.5344C17.0813 3.51317 16.7141 3.88045 16.7141 4.33348Z" fill="var(--fill-0, white)"/>
<path id="Vector_3" d="M10.4789 7.02836H4.32841C3.87538 7.02836 3.5081 7.39564 3.5081 7.84867C3.5081 8.3017 3.87538 8.66898 4.32841 8.66898H10.479C10.932 8.66898 11.2993 8.3017 11.2993 7.84867C11.2993 7.39564 10.932 7.02836 10.4789 7.02836Z" fill="var(--fill-0, white)"/>
<path id="Vector_4" d="M23.6849 7.02836H17.5344C17.0814 7.02836 16.7141 7.39564 16.7141 7.84867C16.7141 8.3017 17.0814 8.66898 17.5344 8.66898H23.685C24.138 8.66898 24.5053 8.3017 24.5053 7.84867C24.5053 7.39564 24.138 7.02836 23.6849 7.02836Z" fill="var(--fill-0, white)"/>
<path id="Vector_5" d="M10.4789 10.5405H4.32841C3.87538 10.5405 3.5081 10.9078 3.5081 11.3608C3.5081 11.8139 3.87538 12.1811 4.32841 12.1811H10.479C10.932 12.1811 11.2993 11.8139 11.2993 11.3608C11.2993 10.9078 10.932 10.5405 10.4789 10.5405Z" fill="var(--fill-0, white)"/>
<path id="Vector_6" d="M8.72163 14.0587H4.32841C3.87538 14.0587 3.5081 14.426 3.5081 14.8791C3.5081 15.3321 3.87538 15.6994 4.32841 15.6994H8.72163C9.17466 15.6994 9.54194 15.3321 9.54194 14.8791C9.54194 14.426 9.17466 14.0587 8.72163 14.0587Z" fill="var(--fill-0, white)"/>
<path id="Vector_7" d="M27.1797 0H17.5146C16.0675 0 14.7873 0.707875 14 1.7967C13.2127 0.707875 11.9325 0 10.4854 0H0.820312C0.367281 0 0 0.367281 0 0.820312V18.3932C0 18.8462 0.367281 19.2135 0.820312 19.2135H11.9954C12.968 21.2879 15.0761 22.7281 17.5145 22.7281C18.8992 22.7281 20.177 22.2633 21.2011 21.4822L24.8422 25.1238C25.1626 25.4441 25.682 25.4442 26.0024 25.1238C26.3227 24.8035 26.3227 24.2841 26.0024 23.9637L22.3612 20.3221C22.6227 19.9791 22.8488 19.6079 23.0337 19.2135H27.1797C27.6327 19.2135 28 18.8462 28 18.3932V0.820312C28 0.367281 27.6327 0 27.1797 0ZM11.4944 17.5729H1.64062V1.64062H10.4854C11.9762 1.64062 13.1797 2.84681 13.1797 4.33491V12.3599C12.0938 13.4606 11.4224 14.9712 11.4224 16.6359C11.4224 16.9545 11.4471 17.2674 11.4944 17.5729ZM17.5146 21.0875C15.06 21.0875 13.063 19.0905 13.063 16.6359C13.063 14.1813 15.06 12.1844 17.5146 12.1844C19.9692 12.1844 21.9662 14.1813 21.9662 16.6359C21.9662 19.0905 19.9692 21.0875 17.5146 21.0875ZM26.3594 17.5729H23.5347C23.5821 17.2674 23.6068 16.9545 23.6068 16.6359C23.6068 16.3173 23.5819 16.0045 23.5345 15.699H23.6651C24.1181 15.699 24.4854 15.3317 24.4854 14.8787C24.4854 14.4256 24.1181 14.0584 23.6651 14.0584H23.0337C22.7008 13.3488 22.2353 12.7133 21.669 12.1844H23.6651C24.1182 12.1844 24.4855 11.8171 24.4855 11.3641C24.4855 10.911 24.1182 10.5437 23.6651 10.5437H17.5146C16.5478 10.5437 15.6331 10.7705 14.8203 11.173V4.33491C14.8203 2.84681 16.0238 1.64062 17.5146 1.64062H26.3594V17.5729Z" fill="var(--fill-0, white)"/>
</g>
</svg>
