<svg preserveAspectRatio="none" width="100%" height="100%" overflow="visible" style="display: block;" viewBox="0 0 28 28" fill="none" xmlns="http://www.w3.org/2000/svg">
<g id="Group">
<path id="Vector" d="M27.1797 0H23.6651C23.2121 0 22.8448 0.367282 22.8448 0.820314V1.44911L1.63773 4.27701C1.60787 3.8511 1.25382 3.51461 0.820312 3.51461C0.367281 3.51461 0 3.88189 0 4.33492V9.60681C0 10.0598 0.367281 10.4271 0.820312 10.4271C1.25382 10.4271 1.60792 10.0906 1.63773 9.66467L11.4697 10.9756C11.5957 11.6267 11.9672 12.191 12.484 12.5682L7.94593 26.9323C7.80943 27.3643 8.04902 27.8252 8.48099 27.9616C8.91313 28.0983 9.37377 27.8585 9.51027 27.4265L14.002 13.2092L18.4897 27.4265C18.6262 27.8585 19.0869 28.0983 19.519 27.9616C19.951 27.8252 20.1906 27.3643 20.0541 26.9323L15.5193 12.5658C15.8544 12.3205 16.1282 11.9964 16.3133 11.6209L22.8448 12.4921V13.1214C22.8448 13.5744 23.2121 13.9417 23.6651 13.9417H27.1797C27.6327 13.9417 28 13.5744 28 13.1214V0.820314C28 0.367282 27.6327 0 27.1797 0ZM5.27188 8.49408L1.64062 8.00993V5.93175L5.27188 5.44754V8.49408ZM8.78648 8.96253L6.9125 8.71283V5.22874L8.78648 4.97887V8.96253ZM14 11.4224C13.4834 11.4224 13.063 11.0021 13.063 10.4854C13.063 9.96878 13.4834 9.5484 14 9.5484C14.5166 9.5484 14.937 9.96878 14.937 10.4854C14.937 11.0021 14.5166 11.4224 14 11.4224ZM19.3302 10.3682L16.5308 9.99476C16.301 8.80733 15.2535 7.90783 14 7.90783C12.9975 7.90783 12.1095 8.49009 11.6849 9.34917L10.4271 9.18128V4.76006L19.3302 3.57301V10.3682ZM22.8448 10.837L20.9708 10.5871V3.35421L22.8448 3.10429V10.837ZM26.3594 12.3011H24.4854V1.64063H26.3594V12.3011Z" fill="var(--fill-0, white)"/>
</g>
</svg>
