<svg preserveAspectRatio="none" width="100%" height="100%" overflow="visible" style="display: block;" viewBox="0 0 32 32" fill="none" xmlns="http://www.w3.org/2000/svg">
<g id="Group">
<path id="Vector" d="M16 32C7.17725 32 0 24.8228 0 16C0 7.17725 7.17725 0 16 0C24.8228 0 32 7.17725 32 16C32 24.8228 24.8228 32 16 32ZM16 1.08614C7.77681 1.08614 1.08615 7.7768 1.08615 16C1.08615 24.2232 7.77681 30.9139 16 30.9139C24.2232 30.9139 30.9139 24.2232 30.9139 16C30.9139 7.7768 24.2232 1.08614 16 1.08614Z" fill="var(--fill-0, #5B5B5B)"/>
<path id="Vector_2" d="M23.7079 13.143C23.6106 12.2037 23.4012 11.1654 22.6305 10.6198C22.0336 10.1966 21.249 10.181 20.5165 10.1818C18.9682 10.1827 17.4189 10.1845 15.8706 10.1853C14.3813 10.1871 12.8921 10.1879 11.4028 10.1897C10.7807 10.1905 10.176 10.1419 9.59816 10.4112C9.10203 10.6424 8.71365 11.082 8.47992 11.5712C8.15583 12.2515 8.08806 13.0222 8.04896 13.7747C7.97684 15.1449 7.98466 16.5186 8.07068 17.8879C8.13411 18.8872 8.29485 19.9915 9.06728 20.6284C9.75196 21.1923 10.7181 21.2201 11.6061 21.2209C14.4248 21.2236 17.2443 21.2262 20.0638 21.2279C20.4253 21.2288 20.8024 21.2218 21.1708 21.1819C21.8954 21.1037 22.5862 20.896 23.0519 20.359C23.5219 19.8177 23.6427 19.0644 23.714 18.351C23.8878 16.6202 23.886 14.8729 23.7079 13.143ZM14.2406 18.1312V13.2785L18.4425 15.7044L14.2406 18.1312Z" fill="var(--fill-0, #5B5B5B)"/>
</g>
</svg>
