<svg preserveAspectRatio="none" width="100%" height="100%" overflow="visible" style="display: block;" viewBox="0 0 32 32" fill="none" xmlns="http://www.w3.org/2000/svg">
<g id="logo-linkedin">
<path id="Vector" d="M16.0352 32H15.9648C7.16191 32 0 24.8381 0 16.0352V15.9648C0 7.16191 7.16191 0 15.9648 0H16.0352C24.8381 0 32 7.16191 32 15.9648V16.0352C32 24.8381 24.8381 32 16.0352 32ZM15.9648 1.08317C7.75874 1.08317 1.08317 7.75874 1.08317 15.9648V16.0352C1.08317 24.2413 7.75874 30.9168 15.9648 30.9168H16.0352C24.2413 30.9168 30.9168 24.2413 30.9168 16.0352V15.9648C30.9168 7.75874 24.2413 1.08317 16.0352 1.08317H15.9648Z" fill="var(--fill-0, #5B5B5B)"/>
<g id="Group">
<path id="Vector_2" d="M9.91648 12.0266C9.6079 11.7402 9.45444 11.3856 9.45444 10.9638C9.45444 10.542 9.60872 10.1718 9.91648 9.88458C10.2251 9.59816 10.6223 9.45455 11.1089 9.45455C11.5956 9.45455 11.9772 9.59816 12.285 9.88458C12.5936 10.171 12.747 10.5313 12.747 10.9638C12.747 11.3963 12.5927 11.7402 12.285 12.0266C11.9764 12.313 11.5849 12.4566 11.1089 12.4566C10.6329 12.4566 10.2251 12.313 9.91648 12.0266ZM12.4877 13.6696V22.4509H9.71295V13.6696H12.4877Z" fill="var(--fill-0, #5B5B5B)"/>
<path id="Vector_3" d="M21.7239 14.5428C22.3288 15.1994 22.6308 16.1005 22.6308 17.2478V22.3016H19.9956V17.604C19.9956 17.0254 19.8454 16.5757 19.5458 16.2556C19.2463 15.9355 18.8425 15.7747 18.337 15.7747C17.8314 15.7747 17.4276 15.9347 17.1281 16.2556C16.8285 16.5757 16.6784 17.0254 16.6784 17.604V22.3016H14.0276V13.6508H16.6784V14.7981C16.9467 14.4156 17.3087 14.1136 17.7633 13.8912C18.218 13.6688 18.7293 13.558 19.298 13.558C20.3107 13.558 21.1199 13.8863 21.7239 14.5428Z" fill="var(--fill-0, #5B5B5B)"/>
</g>
</g>
</svg>
