<svg preserveAspectRatio="none" width="100%" height="100%" overflow="visible" style="display: block;" viewBox="0 0 32 32" fill="none" xmlns="http://www.w3.org/2000/svg">
<g id="Group 424">
<path id="Vector (Stroke)" d="M11.7333 16C11.7333 15.4598 11.7607 14.9308 11.8139 14.4187C11.0474 14.0847 10.3295 13.6612 9.67153 13.1625C9.28276 14.0281 9.06667 14.9883 9.06667 16C9.06667 16.5198 9.12385 17.0256 9.23194 17.5118C10.0935 17.9715 11.0068 18.3466 11.9618 18.625C11.8133 17.8005 11.7333 16.9165 11.7333 16ZM18.5729 20.0521C17.7359 20.1923 16.8765 20.2667 16 20.2667C15.1232 20.2667 14.2636 20.1924 13.4264 20.0521C13.549 20.4086 13.6868 20.7395 13.8375 21.041C14.4848 22.3355 15.2799 22.9333 16 22.9333C16.7201 22.9333 17.5152 22.3355 18.1625 21.041C18.3132 20.7396 18.4504 20.4085 18.5729 20.0521ZM9.71944 18.9368C10.4654 20.5292 11.7977 21.7915 13.4396 22.4444C13.235 22.1603 13.0486 21.8487 12.8833 21.5181C12.6272 21.0058 12.4083 20.4287 12.2319 19.8021C11.3631 19.5845 10.5232 19.2944 9.71944 18.9368ZM22.2799 18.9368C21.4761 19.2944 20.6363 19.5845 19.7674 19.8021C19.591 20.4287 19.3727 21.0059 19.1167 21.5181C18.9513 21.8488 18.7644 22.1602 18.5597 22.4444C20.2018 21.7916 21.5338 20.5293 22.2799 18.9368ZM16 9.06667C15.2799 9.06667 14.4848 9.66452 13.8375 10.959C13.4586 11.7169 13.1615 12.6616 12.984 13.7278C13.9309 14.0475 14.9449 14.2222 16 14.2222C17.0549 14.2222 18.0685 14.0474 19.0153 13.7278C18.8378 12.6617 18.5414 11.7168 18.1625 10.959C17.5152 9.66452 16.7201 9.06667 16 9.06667ZM13.4389 9.55486C12.1004 10.0871 10.9665 11.0243 10.1889 12.216C10.7377 12.6466 11.3353 13.0171 11.9722 13.3187C12.1689 12.2523 12.4808 11.2871 12.8833 10.4819C13.0487 10.1513 13.2343 9.83908 13.4389 9.55486ZM18.5604 9.55486C18.7651 9.83917 18.9513 10.1512 19.1167 10.4819C19.5192 11.2871 19.8304 12.2524 20.0271 13.3187C20.664 13.0171 21.2616 12.6466 21.8104 12.216C21.0327 11.0243 19.899 10.087 18.5604 9.55486ZM12.8 16C12.8 17.0424 12.9115 18.0258 13.1069 18.9076C14.0415 19.0982 15.0088 19.2 16 19.2C16.991 19.2 17.958 19.0981 18.8924 18.9076C19.0879 18.0258 19.2 17.0424 19.2 16C19.2 15.5917 19.1817 15.1925 19.1493 14.8049C18.1549 15.1176 17.0974 15.2889 16 15.2889C14.9023 15.2889 13.8446 15.1177 12.85 14.8049C12.8176 15.1925 12.8 15.5917 12.8 16ZM20.2667 16C20.2667 16.9165 20.186 17.8004 20.0375 18.625C20.9925 18.3466 21.9058 17.9715 22.7674 17.5118C22.8755 17.0255 22.9333 16.5198 22.9333 16C22.9333 14.9882 22.7166 14.0282 22.3278 13.1625C21.6697 13.6612 20.9519 14.0848 20.1854 14.4187C20.2386 14.9309 20.2667 15.4598 20.2667 16ZM24 16C24 16.6907 23.9123 17.3616 23.7472 18.0021C22.8583 21.4511 19.7275 24 16 24C12.2725 24 9.14174 21.4511 8.25278 18.0021C8.08772 17.3616 8 16.6907 8 16C8 14.5739 8.37343 13.2335 9.02847 12.0729C10.4002 9.64274 13.008 8 16 8C18.992 8 21.5998 9.64274 22.9715 12.0729C23.6266 13.2334 24 14.5739 24 16Z" fill="var(--fill-0, #5B5B5B)"/>
<path id="Vector" d="M16 32C7.17725 32 0 24.8228 0 16C0 7.17725 7.17725 0 16 0C24.8228 0 32 7.17725 32 16C32 24.8228 24.8228 32 16 32ZM16 1.08614C7.77681 1.08614 1.08615 7.7768 1.08615 16C1.08615 24.2232 7.77681 30.9139 16 30.9139C24.2232 30.9139 30.9139 24.2232 30.9139 16C30.9139 7.7768 24.2232 1.08614 16 1.08614Z" fill="var(--fill-0, #5B5B5B)"/>
</g>
</svg>
